<svg width="18" height="18" viewBox="0 0 18 18" fill="none" xmlns="http://www.w3.org/2000/svg">
<path d="M9.00002 0.666664C4.40002 0.666664 0.666687 4.4 0.666687 9C0.666687 13.6 4.40002 17.3333 9.00002 17.3333C13.6 17.3333 17.3334 13.6 17.3334 9C17.3334 4.4 13.6 0.666664 9.00002 0.666664ZM9.00002 15.6667C5.32502 15.6667 2.33335 12.675 2.33335 9C2.33335 5.325 5.32502 2.33333 9.00002 2.33333C12.675 2.33333 15.6667 5.325 15.6667 9C15.6667 12.675 12.675 15.6667 9.00002 15.6667ZM9.25835 8.28333C7.78335 7.90833 7.30835 7.5 7.30835 6.89166C7.30835 6.19166 7.96669 5.7 9.05835 5.7C10.2084 5.7 10.6417 6.25 10.675 7.06666H12.1C12.0584 5.95 11.375 4.925 10.025 4.59166V3.16666H8.08335V4.575C6.82502 4.84166 5.81669 5.65833 5.81669 6.91666C5.81669 8.40833 7.05835 9.15833 8.86669 9.59166C10.4917 9.975 10.8167 10.55 10.8167 11.15C10.8167 11.5917 10.4917 12.3083 9.06669 12.3083C7.73335 12.3083 7.20835 11.7083 7.13335 10.9417H5.70002C5.78335 12.3583 6.83335 13.1583 8.08335 13.4167V14.8333H10.0334V13.4417C11.3 13.2 12.3 12.475 12.3084 11.1333C12.3 9.3 10.725 8.66667 9.25835 8.28333Z" fill="white"/>
</svg>
