<svg width="20" height="20" viewBox="0 0 20 20" fill="none" xmlns="http://www.w3.org/2000/svg">
<path d="M15 5H13.3333C13.3333 3.15833 11.8417 1.66666 10 1.66666C8.15834 1.66666 6.66668 3.15833 6.66668 5H5.00001C4.08334 5 3.33334 5.75 3.33334 6.66666V16.6667C3.33334 17.5833 4.08334 18.3333 5.00001 18.3333H15C15.9167 18.3333 16.6667 17.5833 16.6667 16.6667V6.66666C16.6667 5.75 15.9167 5 15 5ZM10 3.33333C10.9167 3.33333 11.6667 4.08333 11.6667 5H8.33334C8.33334 4.08333 9.08334 3.33333 10 3.33333ZM15 16.6667H5.00001V6.66666H6.66668V8.33333C6.66668 8.79166 7.04168 9.16666 7.50001 9.16666C7.95834 9.16666 8.33334 8.79166 8.33334 8.33333V6.66666H11.6667V8.33333C11.6667 8.79166 12.0417 9.16666 12.5 9.16666C12.9583 9.16666 13.3333 8.79166 13.3333 8.33333V6.66666H15V16.6667Z" fill="white"/>
</svg>
