<svg width="20" height="22" viewBox="0 0 20 22" fill="none" xmlns="http://www.w3.org/2000/svg">
<path d="M19.3311 3.84332C19.2783 3.71666 19.215 3.60055 19.1411 3.48444C18.9933 3.26277 18.7928 3.06221 18.5711 2.91444C18.455 2.84055 18.3389 2.77721 18.2122 2.72444C17.9589 2.61888 17.6844 2.55555 17.3889 2.55555H16.3333V0.444435H14.2222V2.55555H5.77778V0.444435H3.66667V2.55555H2.61111C2.16778 2.55555 1.76667 2.69277 1.42889 2.91444C1.20722 3.06221 1.00667 3.26277 0.858889 3.48444C0.785 3.60055 0.721667 3.71666 0.668889 3.84332C0.563333 4.09666 0.5 4.3711 0.5 4.66666V19.4444C0.5 20.6055 1.43944 21.5555 2.61111 21.5555H17.3889C17.6844 21.5555 17.9589 21.4922 18.2122 21.3867C18.3389 21.3339 18.455 21.2705 18.5711 21.1967C18.7928 21.0489 18.9933 20.8483 19.1411 20.6267C19.3628 20.2889 19.5 19.8772 19.5 19.4444V4.66666C19.5 4.3711 19.4367 4.09666 19.3311 3.84332ZM2.61111 19.4444V4.66666H17.3889V19.4444H2.61111ZM10 12.9844C7.85722 12.9844 3.66667 14.1244 3.66667 16.7633V18.3889H16.3333V16.7739C16.3333 14.1244 12.1428 12.9844 10 12.9844ZM6.105 16.2778C6.83333 15.6867 8.61722 15.0955 10 15.0955C11.3828 15.0955 13.1772 15.6867 13.895 16.2778H6.105ZM10 12.0555C11.7417 12.0555 13.1667 10.6305 13.1667 8.88888C13.1667 7.14721 11.7417 5.72221 10 5.72221C8.25833 5.72221 6.83333 7.14721 6.83333 8.88888C6.83333 10.6305 8.25833 12.0555 10 12.0555ZM10 7.83332C10.5806 7.83332 11.0556 8.30832 11.0556 8.88888C11.0556 9.46944 10.5806 9.94444 10 9.94444C9.41945 9.94444 8.94444 9.46944 8.94444 8.88888C8.94444 8.30832 9.41945 7.83332 10 7.83332Z" fill="white"/>
</svg>
